<svg xmlns="http://www.w3.org/2000/svg" xmlns:xlink="http://www.w3.org/1999/xlink" width="0" height="0" style="position:absolute">
	
		<symbol id="svg-arrow-down" viewBox="0 0 21.825 21.825">
			<path d="M16.791 13.254a1.112 1.112 0 0 1 1.587 0 1.14 1.14 0 0 1 0 1.587l-6.65 6.651a1.14 1.14 0 0 1-.809.333c-.317 0-.603-.127-.81-.333l-6.65-6.651c-.444-.444-.444-1.143 0-1.587s1.143-.444 1.587 0l4.746 4.762V1.111A1.116 1.116 0 0 1 10.918 0c.619 0 1.111.492 1.111 1.111v16.904l4.762-4.761z"></path>
		</symbol>
	
		<symbol id="svg-car" viewBox="0 0 48.997 48.998">
			<path d="M45.961 18.702c-.033-.038-.061-.075-.1-.112l-1.717-1.657c1.424-.323 2.957-1.516 2.957-2.74 0-1.426-1.979-1.932-3.668-1.932-1.766 0-1.971 1.21-1.992 2.065l-4.43-4.271c-.9-.891-2.607-1.592-3.883-1.592h-17.26c-1.275 0-2.981.701-3.882 1.592l-4.429 4.271c-.023-.855-.228-2.065-1.992-2.065-1.691 0-3.669.506-3.669 1.932 0 1.224 1.534 2.417 2.958 2.74L3.137 18.59c-.039.037-.066.074-.1.112C1.2 20.272 0 23.184 0 25.297v6.279c0 1.524.601 2.907 1.572 3.938v2.435c0 1.424 1.192 2.585 2.658 2.585h3.214c1.466 0 2.657-1.159 2.657-2.585v-.623h28.795v.623c0 1.426 1.19 2.585 2.658 2.585h3.213c1.467 0 2.657-1.161 2.657-2.585v-2.435a5.723 5.723 0 0 0 1.572-3.938v-6.279c.002-2.113-1.198-5.025-3.035-6.595zm-32.348-6.749c.623-.519 1.712-.913 2.255-.913H33.13c.543 0 1.632.394 2.255.913l5.809 5.63H7.805l5.808-5.63zM1.993 24.347c0-1.546 1.21-2.801 2.704-2.801 1.493 0 6.372 2.864 6.372 4.41s-4.879 1.188-6.372 1.188c-1.494 0-2.704-1.25-2.704-2.797zm8.109 10.226h-1.03l-3.055.005c-.848-.264-1.446-.572-1.869-.903a2.651 2.651 0 0 1-.506-.514 2.011 2.011 0 0 1-.284-.519c-.38-1.074.405-2.061.405-2.061h5.214l3.476 3.99-2.351.002zm21.894.002H17.002a2.833 2.833 0 0 1-2.832-2.831h20.658a2.832 2.832 0 0 1-2.832 2.831zm.658-4.763h-16.31c-1.7 0-3.08-2.096-3.08-4.681h22.47c0 2.586-1.38 4.681-3.08 4.681zm12.987 2.832a2.025 2.025 0 0 1-.285.518 2.595 2.595 0 0 1-.506.514c-.422.331-1.021.641-1.869.903l-3.055-.005h-3.383l3.478-3.99h5.213c0-.001.786.984.407 2.06zm-1.34-5.5c-1.492 0-6.371.356-6.371-1.188s4.879-4.41 6.371-4.41c1.494 0 2.704 1.255 2.704 2.801 0 1.545-1.21 2.797-2.704 2.797z"></path>
		</symbol>
	
		<symbol id="svg-facebook-f" viewBox="0 0 1792 1792">
			<path d="M1343 12v264h-157q-86 0-116 36t-30 108v189h293l-39 296h-254v759H734V905H479V609h255V391q0-186 104-288.5T1115 0q147 0 228 12z"></path>
		</symbol>
	
		<symbol id="svg-settings" viewBox="0 0 54 54">
			<path d="M51.22 21h-5.052c-.812 0-1.481-.447-1.792-1.197s-.153-1.54.42-2.114l3.572-3.571a2.763 2.763 0 0 0 .814-1.966c0-.743-.289-1.441-.814-1.967l-4.553-4.553c-1.05-1.05-2.881-1.052-3.933 0l-3.571 3.571c-.574.573-1.366.733-2.114.421A1.885 1.885 0 0 1 33 7.832V2.78A2.783 2.783 0 0 0 30.22 0h-6.44A2.783 2.783 0 0 0 21 2.78v5.052c0 .812-.447 1.481-1.197 1.792-.748.313-1.54.152-2.114-.421l-3.571-3.571c-1.052-1.052-2.883-1.05-3.933 0l-4.553 4.553a2.764 2.764 0 0 0-.814 1.967c0 .742.289 1.44.814 1.966l3.572 3.571c.573.574.73 1.364.42 2.114S8.644 21 7.832 21H2.78A2.783 2.783 0 0 0 0 23.78v6.439A2.783 2.783 0 0 0 2.78 33h5.052c.812 0 1.481.447 1.792 1.197s.153 1.54-.42 2.114l-3.572 3.571a2.763 2.763 0 0 0-.814 1.966c0 .743.289 1.441.814 1.967l4.553 4.553c1.051 1.051 2.881 1.053 3.933 0l3.571-3.572a1.887 1.887 0 0 1 2.114-.42c.75.311 1.197.98 1.197 1.792v5.052A2.783 2.783 0 0 0 23.78 54h6.439a2.783 2.783 0 0 0 2.78-2.78v-5.052c0-.812.447-1.481 1.197-1.792a1.885 1.885 0 0 1 2.114.42l3.571 3.572c1.052 1.052 2.883 1.05 3.933 0l4.553-4.553a2.764 2.764 0 0 0 .814-1.967c0-.742-.289-1.44-.814-1.966l-3.572-3.571c-.573-.574-.73-1.364-.42-2.114S45.356 33 46.168 33h5.052A2.783 2.783 0 0 0 54 30.22v-6.44A2.783 2.783 0 0 0 51.22 21zm.78 9.22c0 .43-.35.78-.78.78h-5.052a3.879 3.879 0 0 0-3.64 2.432 3.877 3.877 0 0 0 .854 4.294l3.572 3.571a.78.78 0 0 1 0 1.104l-4.553 4.553a.78.78 0 0 1-1.104 0l-3.571-3.572c-1.149-1.149-2.794-1.474-4.294-.854A3.879 3.879 0 0 0 31 46.168v5.052c0 .43-.35.78-.78.78h-6.44c-.43 0-.78-.35-.78-.78v-5.052a3.879 3.879 0 0 0-2.432-3.64 3.985 3.985 0 0 0-1.533-.311c-1.014 0-1.997.4-2.761 1.164l-3.571 3.572a.78.78 0 0 1-1.104 0L7.046 42.4a.78.78 0 0 1 0-1.104l3.572-3.571a3.879 3.879 0 0 0 .854-4.294A3.88 3.88 0 0 0 7.832 31H2.78c-.43 0-.78-.35-.78-.78v-6.44c0-.43.35-.78.78-.78h5.052a3.879 3.879 0 0 0 3.64-2.432 3.877 3.877 0 0 0-.854-4.294l-3.572-3.571a.78.78 0 0 1 0-1.104l4.553-4.553a.78.78 0 0 1 1.104 0l3.571 3.571a3.88 3.88 0 0 0 4.294.854A3.876 3.876 0 0 0 23 7.832V2.78c0-.43.35-.78.78-.78h6.439c.431 0 .781.35.781.78v5.052c0 1.624.932 3.019 2.432 3.64a3.878 3.878 0 0 0 4.294-.854l3.571-3.571a.78.78 0 0 1 1.104 0l4.553 4.553a.78.78 0 0 1 0 1.104l-3.572 3.571a3.879 3.879 0 0 0-.854 4.294 3.879 3.879 0 0 0 3.64 2.432h5.052a.78.78 0 0 1 .78.779v6.44z"></path><path d="M27 18c-4.963 0-9 4.037-9 9s4.037 9 9 9 9-4.037 9-9-4.037-9-9-9zm0 16c-3.859 0-7-3.141-7-7s3.141-7 7-7 7 3.141 7 7-3.141 7-7 7z"></path>
		</symbol>
	
		<symbol id="svg-shopping-cart" viewBox="0 0 510 510">
			<path d="M153 408c-28.05 0-51 22.95-51 51s22.95 51 51 51 51-22.95 51-51-22.95-51-51-51zM0 0v51h51l91.8 193.8-35.7 61.2c-2.55 7.65-5.1 17.85-5.1 25.5 0 28.05 22.95 51 51 51h306v-51H163.2c-2.55 0-5.1-2.55-5.1-5.1v-2.551l22.95-43.35h188.7c20.4 0 35.7-10.2 43.35-25.5L504.9 89.25c5.1-5.1 5.1-7.65 5.1-12.75 0-15.3-10.2-25.5-25.5-25.5H107.1L84.15 0H0zm408 408c-28.05 0-51 22.95-51 51s22.95 51 51 51 51-22.95 51-51-22.95-51-51-51z"></path>
		</symbol>
	
		<symbol id="svg-sort-down" viewBox="0 0 512 512">
			<path d="M2.344 0h400v32h-400zm0 96h320v32h-320zm0 96h256v32h-256zm0 96h192v32h-192zm0 96h128v32h-128zm0 96h64v32h-64zm484.688-51.312l-20.688 20.688V128h-32v321.376l-20.688-20.688-22.624 22.624 59.312 59.312 59.312-59.312zM434.344 64h32v32h-32zm0-64h32v32h-32z"></path>
		</symbol>
	
		<symbol id="svg-vk" viewBox="0 0 2048 1792">
			<path d="M1981 520q23 64-150 294-24 32-65 85-40 51-55 72t-30.5 49.5-12 42 13 34.5 32.5 43 57 53q4 2 5 4 141 131 191 221 3 5 6.5 12.5t7 26.5-.5 34-25 27.5-59 12.5l-256 4q-24 5-56-5t-52-22l-20-12q-30-21-70-64t-68.5-77.5-61-58-56.5-15.5q-3 1-8 3.5t-17 14.5-21.5 29.5-17 52-6.5 77.5q0 15-3.5 27.5t-7.5 18.5l-4 5q-18 19-53 22h-115q-71 4-146-16.5t-131.5-53-103-66T552 1338l-25-24q-10-10-27.5-30t-71.5-91-106-151-122.5-211T69 559q-6-16-6-27t3-16l4-6q15-19 57-19l274-2q12 2 23 6.5t16 8.5l5 3q16 11 24 32 20 50 46 103.5t41 81.5l16 29q29 60 56 104t48.5 68.5T718 964t34 14 27-5q2-1 5-5t12-22 13.5-47 9.5-81 0-125q-2-40-9-73t-14-46l-6-12q-25-34-85-43-13-2 5-24 16-19 38-30 53-26 239-24 82 1 135 13 20 5 33.5 13.5t20.5 24 10.5 32 3.5 45.5-1 55-2.5 70.5-1.5 82.5q0 11-1 42t-.5 48 3.5 40.5 11.5 39T1221 971q8 2 17 4t26-11 38-34.5 52-67 68-107.5q60-104 107-225 4-10 10-17.5t11-10.5l4-3 5-2.5 13-3 20-.5 288-2q39-5 64 2.5t31 16.5z"></path>
		</symbol>
	
</svg>
